<svg width="53" height="40" fill="none" xmlns="http://www.w3.org/2000/svg"><path d="M40 20A19.8 19.8 0 1 1 .3 20 19.8 19.8 0 0 1 40 20Z" fill="#F4F7FA" stroke="#000" stroke-width=".4"/><path d="M36.6 20a16.4 16.4 0 1 1-33 0 16.4 16.4 0 0 1 33 0Z" stroke="#000" stroke-opacity=".3" stroke-width=".4"/><path d="M52.8 20a19.8 19.8 0 1 1-39.7 0 19.8 19.8 0 0 1 39.7 0Z" fill="#F4F7FA" stroke="#000" stroke-width=".4"/><path d="M49.8 20A16.4 16.4 0 1 1 17 20a16.4 16.4 0 0 1 33 0Z" stroke="#000" stroke-width=".4"/><path d="M32.6 29.5v-2.2c-1.9-.3-3.6-1-5.1-2.1l1.7-2.5c1.2 1 2.4 1.5 3.6 1.7V21c-1.7-.5-2.9-1-3.6-1.8a4 4 0 0 1-1.2-3c0-1.1.5-2.1 1.3-2.9.8-.8 2-1.2 3.3-1.4v-1.2H35V12c1.5.2 2.9.7 4.1 1.6l-1.5 2.6c-.9-.6-1.8-1-2.7-1.3v3.3c1.7.5 3 1 3.7 1.8a4 4 0 0 1 1 3c0 1.2-.3 2.2-1.2 3-.8.7-2 1.1-3.4 1.3v2.2h-2.3Zm.2-11.8v-3c-1 .1-1.6.6-1.6 1.4 0 .4.1.7.4.9.2.2.6.5 1.2.7Zm2 6.9c1-.2 1.6-.7 1.6-1.5 0-.4-.1-.7-.4-1a3 3 0 0 0-1.2-.6v3Z" fill="url(#a)"/><defs><linearGradient id="a" x1="33.3" y1="15.3" x2="33.3" y2="24.7" gradientUnits="userSpaceOnUse"><stop stop-color="#4614E8"/><stop offset="1" stop-color="#BCA7FF"/></linearGradient></defs></svg>