<svg width="87" height="63" viewBox="0 0 87 63" fill="none" xmlns="http://www.w3.org/2000/svg">
<path d="M31.2114 58H47.5918V63H26.2308V0H31.2114V58Z" fill="#3B1D8F"/>
<path d="M4.98053 0H0V63H4.98053V0Z" fill="#3B1D8F"/>
<path d="M56.4461 31.5556C56.4461 46.1111 68.2887 58 82.7876 58V63C65.411 63 51.3549 48.8889 51.3549 31.5556C51.4655 14.1111 65.5217 0 82.8982 0V5C68.2887 5 56.4461 16.8889 56.4461 31.5556Z" fill="#3B1D8F"/>
<path d="M86.4399 31.4444C86.4399 33.4444 84.8904 35 82.8982 35C80.906 35 79.3565 33.4444 79.3565 31.4444C79.3565 29.4444 80.906 27.8889 82.8982 27.8889C84.7798 27.8889 86.4399 29.5556 86.4399 31.4444Z" fill="#3B1D8F"/>
</svg>
