<svg width="40" height="40" fill="none" xmlns="http://www.w3.org/2000/svg"><path d="M18.4 9.2c0 5-4 9-9.1 9-5 0-9.1-4-9.1-9s4-9 9-9c5.1 0 9.2 4 9.2 9ZM18.4 30.8c0 5-4 9-9.1 9-5 0-9.1-4-9.1-9s4-9 9-9c5.1 0 9.2 4 9.2 9ZM39.8 9.2a9 9 0 0 1-18.2 0c0-5 4-9 9.1-9 5 0 9.1 4 9.1 9Z" fill="#F1F5F8" stroke="#000" stroke-width=".4"/><ellipse cx="30.7" cy="30.8" rx="9.3" ry="9.2" fill="url(#a)"/><path fill-rule="evenodd" clip-rule="evenodd" d="M9.3 2.6a6.6 6.6 0 1 0 0 13.1v-3c-2 0-3.6-1.6-3.6-3.5 0-2 1.6-3.6 3.6-3.6v-3Z" fill="#F1F5F8"/><path d="M9.3 2.6h.2v-.2h-.2v.2Zm0 13.2v.2h.2v-.2h-.2Zm0-3h.2v-.2h-.2v.2Zm0-7.2v.2h.2v-.2h-.2Zm0-2.8v-.4.4ZM2.9 9.2c0-3.5 2.8-6.4 6.4-6.4v-.4c-3.8 0-6.8 3-6.8 6.8h.4Zm6.4 6.4a6.4 6.4 0 0 1-6.4-6.4h-.4c0 3.7 3 6.8 6.8 6.8v-.4Zm0 0v.4-.4Zm.2.2v-3H9v3h.4ZM9.3 13v-.4.4ZM5.5 9.2c0 2 1.7 3.8 3.8 3.8v-.4a3.4 3.4 0 0 1-3.4-3.4h-.4Zm3.8-3.8a3.8 3.8 0 0 0-3.8 3.8h.4c0-1.8 1.5-3.4 3.4-3.4v-.4Zm0 0v.4-.4Zm.2.2v-3H9v3h.4Z" fill="#000"/><path fill-rule="evenodd" clip-rule="evenodd" d="M30.3 2.6a6.6 6.6 0 1 0 0 13.1v-3c-2 0-3.6-1.6-3.6-3.5 0-2 1.6-3.6 3.6-3.6v-3Z" fill="#F1F5F8"/><path d="M30.3 2.6h.2v-.2h-.2v.2Zm0 13.2v.2h.2v-.2h-.2Zm0-3h.2v-.2h-.2v.2Zm0-7.2v.2h.2v-.2h-.2Zm0-2.8v-.4.4ZM24 9.2c0-3.5 3-6.4 6.4-6.4v-.4c-3.7 0-6.8 3-6.8 6.8h.4Zm6.4 6.4A6.4 6.4 0 0 1 24 9.2h-.4c0 3.7 3.1 6.8 6.8 6.8v-.4Zm0 0v.4-.4Zm.2.2v-3h-.4v3h.4Zm-.2-2.8v-.4.4Zm-3.8-3.8c0 2 1.7 3.8 3.8 3.8v-.4A3.4 3.4 0 0 1 27 9.2h-.4Zm3.8-3.8a3.8 3.8 0 0 0-3.8 3.8h.4c0-1.8 1.6-3.4 3.4-3.4v-.4Zm0 0v.4-.4Zm.2.2v-3h-.4v3h.4Z" fill="#000"/><path fill-rule="evenodd" clip-rule="evenodd" d="M9.3 24a6.6 6.6 0 1 0 0 13.1v-3c-2 0-3.6-1.6-3.6-3.5 0-2 1.6-3.6 3.6-3.6v-3Z" fill="#F1F5F8"/><path d="M9.3 24h.2v-.2h-.2v.2Zm0 13.1v.2h.2v-.2h-.2Zm0-3h.2V34h-.2v.2Zm0-7v.1h.2V27h-.2Zm0-2.9v-.4.4Zm-6.4 6.4c0-3.5 2.8-6.4 6.4-6.4v-.4c-3.8 0-6.8 3-6.8 6.8h.4Zm6.4 6.3a6.4 6.4 0 0 1-6.4-6.3h-.4c0 3.7 3 6.7 6.8 6.7V37Zm0 0v.4-.4Zm.2.2v-3H9v3h.4Zm-.2-2.8V34v.4Zm-3.8-3.7c0 2 1.7 3.7 3.8 3.7V34a3.4 3.4 0 0 1-3.4-3.3h-.4Zm3.8-3.8a3.8 3.8 0 0 0-3.8 3.8h.4c0-1.9 1.5-3.4 3.4-3.4v-.4Zm0 0v.4-.4Zm.2.2v-3H9v3h.4Z" fill="#000"/><defs><linearGradient id="a" x1="30.7" y1="21.6" x2="30.7" y2="40" gradientUnits="userSpaceOnUse"><stop stop-color="#4614E8"/><stop offset="1" stop-color="#BCA7FF"/></linearGradient></defs></svg>