<svg width="44" height="42" fill="none" xmlns="http://www.w3.org/2000/svg"><mask id="a" fill="#fff"><path d="M40 22a20 20 0 1 1-40 0 20 20 0 0 1 40 0Z"/></mask><path d="M40 22a20 20 0 1 1-40 0 20 20 0 0 1 40 0Z" fill="#F4F7FA"/><path d="M39.6 22c0 10.8-8.8 19.6-19.6 19.6v.8c11.3 0 20.4-9.1 20.4-20.4h-.8ZM20 41.6A19.6 19.6 0 0 1 .4 22h-.8c0 11.3 9.1 20.4 20.4 20.4v-.8ZM.4 22C.4 11.2 9.2 2.4 20 2.4v-.8A20.4 20.4 0 0 0-.4 22h.8ZM20 2.4c10.8 0 19.6 8.8 19.6 19.6h.8c0-11.3-9.1-20.4-20.4-20.4v.8Z" fill="#000" mask="url(#a)"/><g clip-path="url(#b)" fill="#F4F7FA" stroke="#000" stroke-width=".4"><path d="M25.2 24.7c.4.3.5.9.2 1.3a1 1 0 0 1-1.3.2l-4.5-3.4a1 1 0 0 1-.4-.7v-6.7a1 1 0 1 1 1.9 0V21.6l4.1 3.1Z"/><path d="M5.9 22a14.3 14.3 0 1 1 28.6 0 14.3 14.3 0 0 1-28.6 0Zm1.8 0a12.4 12.4 0 1 0 25 0 12.4 12.4 0 0 0-25 0Z"/></g><mask id="d" fill="#fff"><path fill-rule="evenodd" clip-rule="evenodd" d="M26.8.3c5.2 1.3 9.1 6.8 9.1 13.4 0 6.6-3.9 12.1-9.1 13.5a13.8 13.8 0 0 0 16.6-13.5A13.7 13.7 0 0 0 26.8.3Z"/></mask><path fill-rule="evenodd" clip-rule="evenodd" d="M26.8.3c5.2 1.3 9.1 6.8 9.1 13.4 0 6.6-3.9 12.1-9.1 13.5a13.8 13.8 0 0 0 16.6-13.5A13.7 13.7 0 0 0 26.8.3Z" fill="#7247FF"/><path fill-rule="evenodd" clip-rule="evenodd" d="M26.8.3c5.2 1.3 9.1 6.8 9.1 13.4 0 6.6-3.9 12.1-9.1 13.5a13.8 13.8 0 0 0 16.6-13.5A13.7 13.7 0 0 0 26.8.3Z" fill="url(#c)"/><path d="M26.8.3V0l-.1.6V.3Zm0 26.9-.1-.3v.6-.3ZM26.7.6c5 1.3 9 6.6 9 13.1h.5c0-6.7-4-12.3-9.4-13.7l-.1.6Zm9 13.1c0 6.5-4 11.9-9 13.2l.1.6c5.4-1.4 9.4-7 9.4-13.8h-.6Zm-6 13.5c-1 0-2-.1-2.9-.3v.6c.9.2 1.8.3 2.9.3v-.6ZM43 13.7c0 7.5-6 13.5-13.4 13.5v.6a14 14 0 0 0 14-14H43ZM29.7.3C37 .3 43 6.3 43 13.7h.6a14 14 0 0 0-14-14v.6Zm-2.9.3c1-.2 1.9-.3 2.9-.3v-.6l-3 .3.1.6Z" fill="#000" mask="url(#d)"/><defs><linearGradient id="c" x1="35.1" y1="27.5" x2="35.1" y2="0" gradientUnits="userSpaceOnUse"><stop stop-color="#4614E8"/><stop offset="1" stop-color="#BCA7FF"/></linearGradient><clipPath id="b"><path fill="#fff" d="M5.7 7.5h28.9v28.9H5.7z"/></clipPath></defs></svg>