<svg width="18" height="18" viewBox="0 0 18 18" fill="none" xmlns="http://www.w3.org/2000/svg">
<g clip-path="url(#clip0_0_1222)">
<path d="M9.10875 14.625C11.7128 14.625 10.7843 12.9765 10.9853 12.5025C10.9823 12.1485 10.9793 11.808 10.9913 11.601C11.1563 11.6475 11.5455 11.8447 12.3495 12.6262C13.5908 13.8787 13.908 14.625 14.9108 14.625H16.7565C17.3415 14.625 17.646 14.3827 17.7983 14.1795C17.9453 13.983 18.0893 13.638 17.9318 13.101C17.52 11.808 15.1185 9.57525 14.9693 9.33975C14.9918 9.29625 15.0278 9.2385 15.0465 9.2085H15.045C15.519 8.58225 17.328 5.87175 17.5943 4.78725C17.595 4.78575 17.5958 4.7835 17.5958 4.78125C17.7398 4.28625 17.6078 3.96525 17.4713 3.78375C17.2658 3.51225 16.9388 3.375 16.497 3.375H14.6513C14.0333 3.375 13.5645 3.68625 13.3275 4.254C12.9308 5.26275 11.8163 7.33725 10.9808 8.0715C10.9553 7.03125 10.9725 6.237 10.986 5.64675C11.013 4.4955 11.1 3.375 9.90525 3.375H7.00425C6.25575 3.375 5.5395 4.1925 6.315 5.163C6.993 6.0135 6.55875 6.4875 6.705 8.847C6.135 8.23575 5.121 6.585 4.404 4.47525C4.203 3.9045 3.8985 3.37575 3.04125 3.37575H1.1955C0.447 3.37575 0 3.78375 0 4.467C0 6.0015 3.39675 14.625 9.10875 14.625ZM3.04125 4.50075C3.204 4.50075 3.2205 4.50075 3.34125 4.8435C4.0755 7.00575 5.7225 10.2053 6.9255 10.2053C7.82925 10.2053 7.82925 9.279 7.82925 8.93025L7.8285 6.15375C7.779 5.235 7.4445 4.7775 7.22475 4.5L9.85575 4.503C9.85725 4.51575 9.84075 7.57425 9.86325 8.31525C9.86325 9.3675 10.6988 9.9705 12.003 8.6505C13.3793 7.09725 14.331 4.77525 14.3693 4.68075C14.4255 4.54575 14.4743 4.5 14.6513 4.5H16.497H16.5045C16.5037 4.50225 16.5038 4.5045 16.503 4.50675C16.3343 5.29425 14.6685 7.80375 14.1113 8.583C14.1023 8.595 14.094 8.60775 14.0858 8.6205C13.8405 9.021 13.641 9.4635 14.1195 10.086H14.1203C14.1638 10.1385 14.277 10.2615 14.442 10.4325C14.4469 10.4376 14.4519 10.4428 14.4571 10.4481C14.9886 10.9966 16.716 12.7794 16.8705 13.4925C16.767 13.509 16.6545 13.497 14.9108 13.5007C14.5395 13.5007 14.2493 12.9458 13.1415 11.8282C12.1455 10.8593 11.499 10.4633 10.9103 10.4633C9.76725 10.4633 9.8505 11.391 9.861 12.513C9.86475 13.7295 9.85725 13.3448 9.8655 13.4213C9.79875 13.4475 9.6075 13.5 9.10875 13.5C4.35 13.5 1.251 5.94675 1.13175 4.503C1.173 4.49925 1.74075 4.5015 3.04125 4.50075Z" fill="#273895"/>
<path d="M3.04125 4.50075C3.204 4.50075 3.2205 4.50075 3.34125 4.8435C4.0755 7.00575 5.7225 10.2053 6.9255 10.2053C7.82925 10.2053 7.82925 9.279 7.82925 8.93025L7.8285 6.15375C7.779 5.235 7.4445 4.7775 7.22475 4.5L9.85575 4.503C9.85725 4.51575 9.84075 7.57425 9.86325 8.31525C9.86325 9.3675 10.6988 9.9705 12.003 8.6505C13.3793 7.09725 14.331 4.77525 14.3693 4.68075C14.4255 4.54575 14.4743 4.5 14.6513 4.5H16.497H16.5045C16.5037 4.50225 16.5038 4.5045 16.503 4.50675C16.3343 5.29425 14.6685 7.80375 14.1113 8.583C14.1023 8.595 14.094 8.60775 14.0858 8.6205C13.8405 9.021 13.641 9.4635 14.1195 10.086H14.1203C14.1638 10.1385 14.277 10.2615 14.442 10.4325L14.4571 10.4481C14.9886 10.9966 16.716 12.7794 16.8705 13.4925C16.767 13.509 16.6545 13.497 14.9108 13.5007C14.5395 13.5007 14.2493 12.9458 13.1415 11.8282C12.1455 10.8593 11.499 10.4633 10.9103 10.4633C9.76725 10.4633 9.8505 11.391 9.861 12.513C9.86475 13.7295 9.85725 13.3448 9.8655 13.4213C9.79875 13.4475 9.6075 13.5 9.10875 13.5C4.35 13.5 1.251 5.94675 1.13175 4.503C1.173 4.49925 1.74075 4.5015 3.04125 4.50075Z" fill="#273895"/>
</g>
<defs>
<clipPath id="clip0_0_1222">
<rect width="18" height="18" fill="white"/>
</clipPath>
</defs>
</svg>
